<svg xmlns="http://www.w3.org/2000/svg" viewBox="0 0 280.59 85.36"><defs><style>.cls-1,.cls-2{fill:#fff;}.cls-1{fill-rule:evenodd;}.cls-3,.cls-4{fill:none;}.cls-3{stroke:#fff;stroke-miterlimit:10;}.cls-5{fill:#ed1e24;}</style></defs><g id="Layer_2" data-name="Layer 2"><g id="Layer_1-2" data-name="Layer 1"><g id="White"><path class="cls-1" d="M129.6,8.46l-.77-.67a17.44,17.44,0,0,0-2.2-1.68h0A36,36,0,0,0,106.33.19H70.24l-25.84,36L20.27.61H0L34.55,50c10.28,10.57,19,.14,19,.14l26-36.42h25.35c8.5,0,16.62,4.75,16.62,13.5,0,8.45-8.4,13.28-16.62,13.33L84.9,40.7V20H81.58L68.64,38.61V54.24L106.33,54C119,53.88,132,47.38,136.25,35.73a14.59,14.59,0,0,0,1-3.76c1.43-10.1-2.17-17-5.56-21.18C131.29,10.27,129.89,8.73,129.6,8.46Z"/><path class="cls-2" d="M10.67,58.13l.5.19a5.15,5.15,0,0,1-.38,1.11,13.18,13.18,0,0,1,.16,2v.19H10.2a3.37,3.37,0,0,0-.92-2.11,2.76,2.76,0,0,0-2-.72,3.18,3.18,0,0,0-1.85.56,3.54,3.54,0,0,0-1.25,1.62,6.45,6.45,0,0,0-.45,2.52,5.67,5.67,0,0,0,1,3.6,3.31,3.31,0,0,0,2.74,1.29,3.16,3.16,0,0,0,2-.61,2.83,2.83,0,0,0,1-1.78h.74a14.72,14.72,0,0,1-.33,1.66,3.85,3.85,0,0,1,.17.69,7.64,7.64,0,0,1-1.77.6,9.86,9.86,0,0,1-2.13.23,9.56,9.56,0,0,1-2.79-.38,6,6,0,0,1-2.11-1.1A4.75,4.75,0,0,1,1,65.93a5.48,5.48,0,0,1-.44-2.21A5.86,5.86,0,0,1,1,61.44a5,5,0,0,1,1.32-1.81,5.87,5.87,0,0,1,2.11-1.18A9,9,0,0,1,7.17,58a8.16,8.16,0,0,1,1.15.07l1.07.17a4.66,4.66,0,0,0,.77.1A.85.85,0,0,0,10.67,58.13Z"/><path class="cls-2" d="M22.08,63.54a23.9,23.9,0,0,0,1.07,2.15,9.77,9.77,0,0,0,1,1.52,4,4,0,0,0,1.09.91,2.36,2.36,0,0,0,1.16.3h.07v.52a10.65,10.65,0,0,1-1.59.13A7.37,7.37,0,0,1,23.69,69a3.4,3.4,0,0,1-1-.28,2.85,2.85,0,0,1-.76-.52,5.51,5.51,0,0,1-.53-.63,6.24,6.24,0,0,1-.45-.77c-.14-.29-.27-.56-.39-.83s-.24-.58-.4-.93a1.52,1.52,0,0,0-.26-.45.81.81,0,0,0-.34-.21,3.1,3.1,0,0,0-.7-.07l-.69,0v1.12a15.18,15.18,0,0,0,.07,1.75,1.47,1.47,0,0,0,.39.89,1.63,1.63,0,0,0,1,.4v.52a13.13,13.13,0,0,1-2.81-.41,16.18,16.18,0,0,1-2.82.41v-.52A1.67,1.67,0,0,0,15,68a1.5,1.5,0,0,0,.39-.89,12,12,0,0,0,.09-1.72V61.78A12.7,12.7,0,0,0,15.41,60a1.59,1.59,0,0,0-.43-.9,1.86,1.86,0,0,0-1.09-.39v-.5a10.55,10.55,0,0,1,2.66.36,12.85,12.85,0,0,1,3.21-.38,8.19,8.19,0,0,1,2.41.3,2.77,2.77,0,0,1,1.42.91,2.37,2.37,0,0,1,.48,1.53,2.48,2.48,0,0,1-.51,1.56A3.3,3.3,0,0,1,22.08,63.54Zm-3.86.05a5.86,5.86,0,0,0,.76.06,2.06,2.06,0,0,0,1.57-.57,2.36,2.36,0,0,0,.53-1.66,2.73,2.73,0,0,0-.57-1.85,2,2,0,0,0-1.59-.65,4.91,4.91,0,0,0-.67,0c0,.49,0,1.22,0,2.18Z"/><path class="cls-2" d="M28.29,58.22a11,11,0,0,1,2.6.41,11.18,11.18,0,0,1,2-.32c.74-.06,1.64-.09,2.71-.09a3.16,3.16,0,0,1,.84.07.31.31,0,0,1,.22.32.86.86,0,0,1-.24.53,6.77,6.77,0,0,1,.16,1.35v.17a.53.53,0,0,0,0,.13H36a2.17,2.17,0,0,0-.24-1,1,1,0,0,0-.61-.45A4.32,4.32,0,0,0,34,59.23H32.56c0,.88-.05,1.59-.05,2.12v1.58h1.22a2.38,2.38,0,0,0,1.17-.21,1.05,1.05,0,0,0,.4-.88h.63a6,6,0,0,1-.28,1.55A6.36,6.36,0,0,1,35.93,65H35.3a1.46,1.46,0,0,0-.17-.7.75.75,0,0,0-.47-.3,4.24,4.24,0,0,0-.93-.08H32.51V66a4.39,4.39,0,0,0,.11,1.2.76.76,0,0,0,.49.5,4.37,4.37,0,0,0,1.23.13,5.23,5.23,0,0,0,1.4-.15,1.41,1.41,0,0,0,.79-.54A2.77,2.77,0,0,0,36.91,66h.68a6.74,6.74,0,0,1-.41,1.8,1.08,1.08,0,0,1,.18.5.49.49,0,0,1-.44.5,8.47,8.47,0,0,1-1.64.1H34l-1.06,0q-.59,0-1.05-.12a9,9,0,0,1-1-.22,13.13,13.13,0,0,1-2.6.41v-.5a1.61,1.61,0,0,0,1-.39,1.56,1.56,0,0,0,.39-.89,14.31,14.31,0,0,0,.08-1.73V61.84a15.21,15.21,0,0,0-.08-1.77,1.66,1.66,0,0,0-.39-.92,1.63,1.63,0,0,0-1-.43Z"/><path class="cls-2" d="M44.58,58.13l1.08.18,1.11-.18,2.1,5.31.72,1.81a20.29,20.29,0,0,0,.84,2,3.06,3.06,0,0,0,.63.9,1.05,1.05,0,0,0,.75.31h0v.52a12.45,12.45,0,0,1-2.79-.41,11.28,11.28,0,0,1-2.67.41v-.52a1.67,1.67,0,0,0,.78-.21.57.57,0,0,0,.25-.52A3.24,3.24,0,0,0,47.3,67c-.09-.31-.24-.72-.43-1.21l-.26-.69-1.78,0-1.81,0-.28.69a9.57,9.57,0,0,0-.42,1.24,4.06,4.06,0,0,0-.14.71.52.52,0,0,0,.21.46,1.57,1.57,0,0,0,.7.21v.51a6.66,6.66,0,0,1-2-.35,8.41,8.41,0,0,1-2,.35v-.52a1.56,1.56,0,0,0,.93-.34,3.27,3.27,0,0,0,.74-.92,10.81,10.81,0,0,0,.66-1.36c.22-.51.55-1.33,1-2.45Zm.31,2.31q-.9,2-1.56,3.87h3l-.5-1.39C45.57,62.23,45.26,61.4,44.89,60.44Z"/><path class="cls-2" d="M53.55,58h.56q0,.21.3.27a4.45,4.45,0,0,0,1,.07H61.7a4.82,4.82,0,0,0,.9-.06c.19,0,.29-.14.31-.28h.56a3.94,3.94,0,0,1-.2,1,9.84,9.84,0,0,1,.42,2.08h-.61A3.93,3.93,0,0,0,62.71,60a1.4,1.4,0,0,0-.63-.6A2.87,2.87,0,0,0,61,59.12H60c0,.91-.08,2.09-.08,3.52v1.93c0,.52,0,.9,0,1.14s0,.51,0,.81a5.71,5.71,0,0,0,.09.75,2.35,2.35,0,0,0,.16.49,1,1,0,0,0,.52.43,3.25,3.25,0,0,0,1,.24v.51a19.64,19.64,0,0,1-3.18-.41q-.91.19-1.71.3c-.53.06-1,.1-1.46.11v-.51a4,4,0,0,0,1-.23,1,1,0,0,0,.52-.44,2.32,2.32,0,0,0,.21-.89c0-.39,0-1,0-1.83V61.89c0-1.1,0-2-.08-2.77H56a1.91,1.91,0,0,0-1.4.45,2.76,2.76,0,0,0-.66,1.51h-.62A9.64,9.64,0,0,1,53.74,59,3.62,3.62,0,0,1,53.55,58Z"/><path class="cls-2" d="M66.09,58.22a10.9,10.9,0,0,1,2.6.41,11.18,11.18,0,0,1,2-.32c.74-.06,1.64-.09,2.71-.09a3.16,3.16,0,0,1,.84.07.31.31,0,0,1,.22.32.86.86,0,0,1-.24.53,6.77,6.77,0,0,1,.16,1.35v.17s0,.08,0,.13h-.59a2.18,2.18,0,0,0-.23-1,1,1,0,0,0-.61-.45,4.46,4.46,0,0,0-1.17-.12H70.37c0,.88-.06,1.59-.06,2.12v1.58h1.22a2.38,2.38,0,0,0,1.17-.21,1,1,0,0,0,.4-.88h.63a6,6,0,0,1-.28,1.55A5.93,5.93,0,0,1,73.73,65H73.1a1.35,1.35,0,0,0-.17-.7.75.75,0,0,0-.47-.3,4.24,4.24,0,0,0-.93-.08H70.31V66a4.84,4.84,0,0,0,.11,1.2.76.76,0,0,0,.5.5,4.37,4.37,0,0,0,1.23.13,5.2,5.2,0,0,0,1.39-.15,1.41,1.41,0,0,0,.79-.54A2.63,2.63,0,0,0,74.72,66h.67a6.74,6.74,0,0,1-.41,1.8,1.08,1.08,0,0,1,.18.5.48.48,0,0,1-.44.5,8.34,8.34,0,0,1-1.63.1H71.82l-1.06,0q-.58,0-1.05-.12a10,10,0,0,1-1-.22,13.13,13.13,0,0,1-2.6.41v-.5a1.56,1.56,0,0,0,1-.39,1.5,1.5,0,0,0,.39-.89,12.48,12.48,0,0,0,.08-1.73V61.84a13.24,13.24,0,0,0-.08-1.77,1.59,1.59,0,0,0-.39-.92,1.57,1.57,0,0,0-1-.43Z"/><path class="cls-2" d="M83.85,58.22a14.38,14.38,0,0,1,2.61.36,9.82,9.82,0,0,1,1.11-.23c.41-.05.86-.1,1.35-.13v.52a1.39,1.39,0,0,0-.56.16.39.39,0,0,0-.17.35q0,.61,2.18,4c.41-.7.76-1.31,1-1.81A12.85,12.85,0,0,0,92,60.18a2.15,2.15,0,0,0,.2-.8c0-.4-.3-.62-.92-.64v-.52a9.89,9.89,0,0,1,2.15.32,9.87,9.87,0,0,1,1.92-.32v.52a1.65,1.65,0,0,0-.86.31,3.13,3.13,0,0,0-.68.68c-.21.27-.52.7-.92,1.3a25.83,25.83,0,0,0-1.53,2.59,4.06,4.06,0,0,0-.26,1.54v.14a11.64,11.64,0,0,0,.1,1.8,1.6,1.6,0,0,0,.45.94,1.72,1.72,0,0,0,1.06.39v.51a17.8,17.8,0,0,1-3-.41,17.69,17.69,0,0,1-3,.41v-.51a1.87,1.87,0,0,0,1-.27,1.26,1.26,0,0,0,.49-.73,4.62,4.62,0,0,0,.15-1.31V65.6a5.41,5.41,0,0,0,0-.77,1.57,1.57,0,0,0-.18-.57,8.62,8.62,0,0,0-.6-1.05c-.3-.47-.69-1-1.16-1.73s-.91-1.3-1.15-1.63a4.71,4.71,0,0,0-.72-.79,1.11,1.11,0,0,0-.71-.32Z"/><path class="cls-2" d="M109.4,63.57a5.51,5.51,0,0,1-.44,2.18,5.11,5.11,0,0,1-1.26,1.79,5.78,5.78,0,0,1-2,1.16,7.44,7.44,0,0,1-4.93,0,5.82,5.82,0,0,1-1.94-1.17,5.07,5.07,0,0,1-1.26-1.78,5.55,5.55,0,0,1-.44-2.18,5.36,5.36,0,0,1,.45-2.19,5.3,5.3,0,0,1,1.26-1.77,5.75,5.75,0,0,1,1.93-1.16,7.23,7.23,0,0,1,2.47-.41,7.05,7.05,0,0,1,2.48.42,5.63,5.63,0,0,1,1.93,1.15A5.2,5.2,0,0,1,109,61.37,5.38,5.38,0,0,1,109.4,63.57Zm-6.11-4.83a2.34,2.34,0,0,0-1.54.55,3.54,3.54,0,0,0-1,1.64,10.13,10.13,0,0,0,0,5.28,3.51,3.51,0,0,0,1,1.65,2.27,2.27,0,0,0,1.53.55,2.31,2.31,0,0,0,1.54-.55,3.47,3.47,0,0,0,1-1.64,8.55,8.55,0,0,0,.35-2.65,9.24,9.24,0,0,0-.2-2.1,4.64,4.64,0,0,0-.56-1.49,2.49,2.49,0,0,0-.9-.92A2.39,2.39,0,0,0,103.29,58.74Z"/><path class="cls-2" d="M112,58.22a15.86,15.86,0,0,1,2.7.41,13.57,13.57,0,0,1,2.69-.41v.52a1.39,1.39,0,0,0-.92.35,1.52,1.52,0,0,0-.37.88,13.74,13.74,0,0,0-.08,1.7v.77c0,1,0,1.77.1,2.44a5.87,5.87,0,0,0,.3,1.53,2.35,2.35,0,0,0,.93,1.12,2.8,2.8,0,0,0,1.51.39,2.56,2.56,0,0,0,2.46-1.37,3.73,3.73,0,0,0,.37-1.36,22.24,22.24,0,0,0,.09-2.26V61.5a12.18,12.18,0,0,0-.08-1.62,1.3,1.3,0,0,0-.42-.8,1.89,1.89,0,0,0-1.06-.34v-.52a11.7,11.7,0,0,1,2.14.32,14.33,14.33,0,0,1,2-.32v.52a1.5,1.5,0,0,0-.94.28,1.23,1.23,0,0,0-.39.75,8,8,0,0,0-.09,1.39V63.5c0,.65,0,1.21-.06,1.66a6.31,6.31,0,0,1-.27,1.28,3.5,3.5,0,0,1-.55,1.07,3.57,3.57,0,0,1-1,.88,4.32,4.32,0,0,1-1.37.55,7.37,7.37,0,0,1-1.67.18,5,5,0,0,1-3.48-1.1,2.93,2.93,0,0,1-.8-1.08,5,5,0,0,1-.39-1.41,14.31,14.31,0,0,1-.11-1.88V61.28c0-.53,0-.93,0-1.19a2,2,0,0,0-.14-.7.89.89,0,0,0-.39-.46,1.46,1.46,0,0,0-.74-.19Z"/><path class="cls-2" d="M134.84,63.54a23.9,23.9,0,0,0,1.07,2.15,9.77,9.77,0,0,0,1,1.52,4,4,0,0,0,1.09.91,2.36,2.36,0,0,0,1.16.3h.07v.52a10.65,10.65,0,0,1-1.59.13,7.37,7.37,0,0,1-1.23-.09,3.4,3.4,0,0,1-.95-.28,2.85,2.85,0,0,1-.76-.52,5.51,5.51,0,0,1-.53-.63,6.24,6.24,0,0,1-.45-.77c-.14-.29-.27-.56-.39-.83s-.24-.58-.4-.93a1.52,1.52,0,0,0-.26-.45.81.81,0,0,0-.34-.21,3.1,3.1,0,0,0-.7-.07l-.69,0v1.12a15.18,15.18,0,0,0,.07,1.75,1.47,1.47,0,0,0,.39.89,1.63,1.63,0,0,0,1,.4v.52a13.13,13.13,0,0,1-2.81-.41,16.18,16.18,0,0,1-2.82.41v-.52a1.67,1.67,0,0,0,1-.38,1.5,1.5,0,0,0,.39-.89,12,12,0,0,0,.09-1.72V61.78a12.7,12.7,0,0,0-.09-1.77,1.59,1.59,0,0,0-.43-.9,1.86,1.86,0,0,0-1.09-.39v-.5a10.55,10.55,0,0,1,2.66.36,12.85,12.85,0,0,1,3.21-.38,8.19,8.19,0,0,1,2.41.3,2.77,2.77,0,0,1,1.42.91,2.37,2.37,0,0,1,.48,1.53,2.48,2.48,0,0,1-.51,1.56A3.3,3.3,0,0,1,134.84,63.54Zm-3.86.05a5.86,5.86,0,0,0,.76.06,2.06,2.06,0,0,0,1.57-.57,2.36,2.36,0,0,0,.53-1.66,2.73,2.73,0,0,0-.57-1.85,2,2,0,0,0-1.59-.65,5,5,0,0,0-.67,0c0,.49,0,1.22,0,2.18Z"/><path class="cls-2" d="M150.34,68.53a15.11,15.11,0,0,1-2.76.41v-.52a1.67,1.67,0,0,0,1-.38,1.56,1.56,0,0,0,.39-.89,14.12,14.12,0,0,0,.08-1.72V61.7c0-.62,0-1.08,0-1.39a2.69,2.69,0,0,0-.18-.81,1.08,1.08,0,0,0-.44-.53,1.76,1.76,0,0,0-.8-.25v-.5a15,15,0,0,1,2.76.41,8.64,8.64,0,0,1,1.51-.34,14.21,14.21,0,0,1,1.76-.11,9.23,9.23,0,0,1,2.79.38,5.83,5.83,0,0,1,2.08,1.11,4.75,4.75,0,0,1,1.28,1.71,5.38,5.38,0,0,1,.43,2.21,5.45,5.45,0,0,1-.45,2.25,4.46,4.46,0,0,1-1.31,1.71,6,6,0,0,1-2.11,1.09,11.2,11.2,0,0,1-4.49.25A7.53,7.53,0,0,1,150.34,68.53Zm1.47-3.92c0,1.06,0,1.8,0,2.24a5.06,5.06,0,0,0,0,.81.84.84,0,0,0,.41.51,2.09,2.09,0,0,0,.9.15,3.93,3.93,0,0,0,2.07-.53,3.45,3.45,0,0,0,1.35-1.56,5.9,5.9,0,0,0,.46-2.46A5.45,5.45,0,0,0,156,60.15a3.77,3.77,0,0,0-3.06-1.29,5.93,5.93,0,0,0-1,.11c0,.27,0,.72-.07,1.35s0,1.37,0,2.22Z"/><path class="cls-2" d="M162.9,58.22a19.83,19.83,0,0,1,2.82.41,19.39,19.39,0,0,1,2.85-.41v.5a1.76,1.76,0,0,0-.8.25,1.11,1.11,0,0,0-.45.56,3,3,0,0,0-.18.89c0,.35,0,.82,0,1.4V65.2c0,.57,0,1,0,1.4a3.39,3.39,0,0,0,.19.94,1.24,1.24,0,0,0,.44.6,1.58,1.58,0,0,0,.81.29v.51a16.24,16.24,0,0,1-2.84-.41,17.24,17.24,0,0,1-2.83.41v-.51a1.55,1.55,0,0,0,1-.38,1.63,1.63,0,0,0,.39-.89,14.43,14.43,0,0,0,.08-1.73V61.84a15.21,15.21,0,0,0-.08-1.77,1.66,1.66,0,0,0-.4-.92,1.6,1.6,0,0,0-1-.43Z"/><path class="cls-2" d="M181.48,58.13l.5.19a5.32,5.32,0,0,1-.38,1.11,12.29,12.29,0,0,1,.15,1.91v.23H181a4,4,0,0,0-.48-1.52,2.38,2.38,0,0,0-1-1,3.46,3.46,0,0,0-3.37.26A3.68,3.68,0,0,0,174.92,61a6.59,6.59,0,0,0-.45,2.54,5.4,5.4,0,0,0,1.06,3.54,3.47,3.47,0,0,0,2.81,1.29,2.23,2.23,0,0,0,.84-.11.61.61,0,0,0,.37-.35,2,2,0,0,0,.09-.68v-1a3.32,3.32,0,0,0-.13-1.05,1.07,1.07,0,0,0-.48-.6,2.49,2.49,0,0,0-1-.28v-.5c.5,0,1,.07,1.52.14a12.47,12.47,0,0,1,1.45.26,16.5,16.5,0,0,1,2.33-.4v.5a1.62,1.62,0,0,0-.63.39,1.52,1.52,0,0,0-.33.6,3.52,3.52,0,0,0-.09.85v.59a1.4,1.4,0,0,0,.09.62.53.53,0,0,0,.45.15v.53a11.19,11.19,0,0,1-2.31.78,12.17,12.17,0,0,1-2.56.28,10,10,0,0,1-2.85-.38A6,6,0,0,1,173,67.66,4.67,4.67,0,0,1,171.7,66a5.46,5.46,0,0,1-.46-2.23,5.89,5.89,0,0,1,.46-2.32A4.89,4.89,0,0,1,173,59.6a6.08,6.08,0,0,1,2.12-1.16A9.3,9.3,0,0,1,178,58a7.92,7.92,0,0,1,1.14.07c.35,0,.71.1,1.09.17a4.85,4.85,0,0,0,.76.1A.87.87,0,0,0,181.48,58.13Z"/><path class="cls-2" d="M186,58.22a19.83,19.83,0,0,1,2.82.41,19.76,19.76,0,0,1,2.85-.41v.5a1.76,1.76,0,0,0-.8.25,1,1,0,0,0-.44.56,3,3,0,0,0-.19.89c0,.35,0,.82,0,1.4V65.2c0,.57,0,1,0,1.4a3.08,3.08,0,0,0,.18.94,1.31,1.31,0,0,0,.44.6,1.58,1.58,0,0,0,.81.29v.51a16.14,16.14,0,0,1-2.83-.41,17.34,17.34,0,0,1-2.84.41v-.51a1.53,1.53,0,0,0,1-.38,1.56,1.56,0,0,0,.39-.89,12.57,12.57,0,0,0,.08-1.73V61.84a13.24,13.24,0,0,0-.08-1.77,1.66,1.66,0,0,0-.39-.92,1.63,1.63,0,0,0-1-.43Z"/><path class="cls-2" d="M194.4,58H195q0,.21.3.27a4.45,4.45,0,0,0,1,.07h6.33a4.82,4.82,0,0,0,.9-.06c.19,0,.29-.14.31-.28h.56a4.38,4.38,0,0,1-.2,1,10.51,10.51,0,0,1,.42,2.08h-.62a3.65,3.65,0,0,0-.36-1.09,1.4,1.4,0,0,0-.63-.6,2.93,2.93,0,0,0-1.07-.27h-1c0,.91-.08,2.09-.08,3.52v3.07c0,.24,0,.51,0,.81a5.71,5.71,0,0,0,.09.75,1.88,1.88,0,0,0,.16.49,1,1,0,0,0,.51.43,3.41,3.41,0,0,0,1,.24v.51a19.67,19.67,0,0,1-3.17-.41q-.91.19-1.71.3c-.53.06-1,.1-1.46.11v-.51a4.08,4.08,0,0,0,1-.23,1,1,0,0,0,.52-.44,2.52,2.52,0,0,0,.21-.89c0-.39,0-1,0-1.83V61.89c0-1.1,0-2-.08-2.77h-1a2,2,0,0,0-1.41.45,2.84,2.84,0,0,0-.65,1.51h-.62a9.64,9.64,0,0,1,.43-2.08A3.62,3.62,0,0,1,194.4,58Z"/><path class="cls-2" d="M211.48,58.13l1.08.18,1.11-.18,2.1,5.31.72,1.81a20.29,20.29,0,0,0,.84,2,3.06,3.06,0,0,0,.63.9,1.06,1.06,0,0,0,.76.31h0v.52a12.45,12.45,0,0,1-2.79-.41,11.13,11.13,0,0,1-2.67.41v-.52a1.75,1.75,0,0,0,.79-.21.58.58,0,0,0,.24-.52,2.67,2.67,0,0,0-.13-.67,12.5,12.5,0,0,0-.43-1.21l-.26-.69-1.78,0-1.81,0-.28.69c-.18.47-.32.88-.42,1.24a4.06,4.06,0,0,0-.14.71.52.52,0,0,0,.21.46,1.57,1.57,0,0,0,.7.21v.51a6.71,6.71,0,0,1-2-.35,8.41,8.41,0,0,1-2,.35v-.52a1.56,1.56,0,0,0,.93-.34,3.1,3.1,0,0,0,.74-.92,12.34,12.34,0,0,0,.67-1.36l1-2.45Zm.31,2.31q-.9,2-1.56,3.87h3c-.08-.23-.24-.69-.5-1.39S212.16,61.4,211.79,60.44Z"/><path class="cls-2" d="M220.2,58.22a19.47,19.47,0,0,1,2.84.41,19.85,19.85,0,0,1,2.84-.41v.5a1.72,1.72,0,0,0-.8.25,1,1,0,0,0-.44.53,3.16,3.16,0,0,0-.18.86c0,.34,0,.79,0,1.35v4.08a9.62,9.62,0,0,0,.05,1.08,1.24,1.24,0,0,0,.2.58.81.81,0,0,0,.46.31,3.58,3.58,0,0,0,.92.09,5.53,5.53,0,0,0,1.45-.16,1.62,1.62,0,0,0,.84-.54A2.58,2.58,0,0,0,228.8,66h.66a6.61,6.61,0,0,1-.51,1.81,1,1,0,0,1,.2.5.43.43,0,0,1-.23.41,1.81,1.81,0,0,1-.71.16c-.32,0-.76,0-1.32,0-.84,0-1.58,0-2.23-.09a11,11,0,0,1-1.85-.32,14.26,14.26,0,0,1-2.61.41v-.51a1.32,1.32,0,0,0,1.37-1.27,12.24,12.24,0,0,0,.09-1.73V61.84a12.9,12.9,0,0,0-.09-1.77,1.59,1.59,0,0,0-.39-.92,1.57,1.57,0,0,0-1-.43Z"/><path class="cls-2" d="M238.21,58.22a19.47,19.47,0,0,1,2.84.41,19.85,19.85,0,0,1,2.84-.41v.5a1.76,1.76,0,0,0-.8.25,1.1,1.1,0,0,0-.44.53,3.16,3.16,0,0,0-.18.86c0,.34,0,.79,0,1.35v4.08a9.62,9.62,0,0,0,0,1.08,1.24,1.24,0,0,0,.21.58.78.78,0,0,0,.46.31,3.49,3.49,0,0,0,.91.09,5.53,5.53,0,0,0,1.45-.16,1.54,1.54,0,0,0,.84-.54,2.58,2.58,0,0,0,.46-1.13h.66a6,6,0,0,1-.51,1.81.93.93,0,0,1,.2.5.44.44,0,0,1-.22.41,1.92,1.92,0,0,1-.72.16c-.32,0-.76,0-1.32,0q-1.26,0-2.22-.09a11.29,11.29,0,0,1-1.86-.32,14.26,14.26,0,0,1-2.61.41v-.51a1.56,1.56,0,0,0,1-.38,1.63,1.63,0,0,0,.39-.89,14.43,14.43,0,0,0,.08-1.73V61.84a15.21,15.21,0,0,0-.08-1.77,1.73,1.73,0,0,0-.39-.92,1.63,1.63,0,0,0-1-.43Z"/><path class="cls-2" d="M249.85,58.22a20.24,20.24,0,0,1,2.82.41,19.39,19.39,0,0,1,2.85-.41v.5a1.8,1.8,0,0,0-.81.25,1,1,0,0,0-.44.56,2.75,2.75,0,0,0-.18.89c0,.35,0,.82,0,1.4V65.2c0,.57,0,1,0,1.4a3.39,3.39,0,0,0,.19.94,1.23,1.23,0,0,0,.43.6,1.66,1.66,0,0,0,.82.29v.51a16.24,16.24,0,0,1-2.84-.41,17.39,17.39,0,0,1-2.83.41v-.51a1.32,1.32,0,0,0,1.36-1.27,12.24,12.24,0,0,0,.09-1.73V61.84a12.9,12.9,0,0,0-.09-1.77,1.4,1.4,0,0,0-1.36-1.35Z"/><path class="cls-2" d="M258,58.22a11.14,11.14,0,0,1,2.61.41,11.22,11.22,0,0,1,1.82-.31c.7-.07,1.49-.1,2.36-.1h.53a4.3,4.3,0,0,1,1,.07.34.34,0,0,1,.26.35,1,1,0,0,1-.25.5,6.37,6.37,0,0,1,.18,1.37c0,.06,0,.11,0,.15a.62.62,0,0,1,0,.13h-.6a2.18,2.18,0,0,0-.24-1,1,1,0,0,0-.61-.44,4.29,4.29,0,0,0-1.15-.12H262.3c0,.88-.06,1.59-.06,2.12v1.76h1.49a2.36,2.36,0,0,0,1.17-.21,1.09,1.09,0,0,0,.4-.89h.63a5.92,5.92,0,0,1-.28,1.56,6.35,6.35,0,0,1,.28,1.59h-.63c0-.46-.14-.76-.36-.89a2.55,2.55,0,0,0-1.21-.2h-1.49v1a15.92,15.92,0,0,0,.09,2,1.62,1.62,0,0,0,.47,1,1.85,1.85,0,0,0,1.22.35v.51c-.45,0-.93,0-1.43-.11s-1.08-.17-1.73-.3a20.26,20.26,0,0,1-2.84.41v-.51a1.51,1.51,0,0,0,1-.38,1.57,1.57,0,0,0,.4-.89,14.43,14.43,0,0,0,.08-1.73V61.84a15.21,15.21,0,0,0-.08-1.77,1.66,1.66,0,0,0-.4-.92,1.57,1.57,0,0,0-1-.43Z"/><path class="cls-2" d="M269.18,58.22a11,11,0,0,1,2.61.41,10.93,10.93,0,0,1,2-.32c.74-.06,1.64-.09,2.71-.09a3.16,3.16,0,0,1,.84.07.31.31,0,0,1,.22.32.9.9,0,0,1-.23.53,7.47,7.47,0,0,1,.15,1.35v.17s0,.08,0,.13h-.59a2.18,2.18,0,0,0-.23-1,1,1,0,0,0-.61-.45,4.46,4.46,0,0,0-1.17-.12h-1.44c0,.88-.06,1.59-.06,2.12v1.58h1.22a2.45,2.45,0,0,0,1.18-.21,1.05,1.05,0,0,0,.39-.88h.64a6.44,6.44,0,0,1-.28,1.55,6.85,6.85,0,0,1,.28,1.58h-.64a1.35,1.35,0,0,0-.17-.7.72.72,0,0,0-.47-.3,4.24,4.24,0,0,0-.93-.08H273.4V66a4.31,4.31,0,0,0,.12,1.2.74.74,0,0,0,.49.5,4.37,4.37,0,0,0,1.23.13,5.15,5.15,0,0,0,1.39-.15,1.38,1.38,0,0,0,.79-.54,2.63,2.63,0,0,0,.39-1.16h.67a6.38,6.38,0,0,1-.41,1.8,1.08,1.08,0,0,1,.18.5.48.48,0,0,1-.43.5,8.53,8.53,0,0,1-1.64.1h-1.27l-1.06,0c-.38,0-.74-.07-1.05-.12a9.31,9.31,0,0,1-1-.22,13.23,13.23,0,0,1-2.61.41v-.5a1.56,1.56,0,0,0,1-.39,1.5,1.5,0,0,0,.39-.89,12.14,12.14,0,0,0,.09-1.73V61.84a12.9,12.9,0,0,0-.09-1.77,1.59,1.59,0,0,0-.39-.92,1.57,1.57,0,0,0-1-.43Z"/><path class="cls-2" d="M47.13,77.08V83.9h-.88V77.08Zm4.8,0L48.86,80.3,52,83.9H50.77L48,80.62v-.54l2.82-3Z"/><path class="cls-2" d="M54.63,77.08V83.9h-.88V77.08Z"/><path class="cls-2" d="M61.53,77.08v.71H58v2.29h3.41v.72H58v2.38H61.6v.72H57.07V77.08ZM59,75.17h.72l.83,1.24h-.71l-.48-.77-.47.77h-.72Zm2.17-.66h1.14l-1.14,1.14h-.78Z"/><path class="cls-2" d="M63.61,83.9V77.08h.88l4.18,5.49V77.08h.83V83.9h-.88l-4.18-5.54V83.9Z"/><path class="cls-2" d="M79.46,77.08v.71H77.31V83.9h-.88V77.79H74.28v-.71Z"/><path class="cls-2" d="M81.41,83.9h-.92l2.9-6.82h1l2.91,6.82h-1l-.89-2.15H83.16L83.4,81h1.72L83.84,78Zm2.84.57v.89h-.88v-.89Z"/><path class="cls-2" d="M88.64,80.5q0-3.47,3.42-3.47t3.38,3.47q0,3.45-3.38,3.45T88.64,80.5Zm3.42,2.73c1.63,0,2.45-.92,2.45-2.76s-.82-2.72-2.45-2.72-2.49.9-2.49,2.72S90.4,83.23,92.06,83.23Z"/><path class="cls-2" d="M105.71,83.66a6.21,6.21,0,0,1-1.91.29q-3.58,0-3.58-3.56,0-3.36,3.58-3.36a6.21,6.21,0,0,1,1.91.29v.76a5.18,5.18,0,0,0-1.82-.33q-2.79,0-2.79,2.64c0,1.9.93,2.84,2.79,2.84a5.18,5.18,0,0,0,1.82-.33Z"/><path class="cls-2" d="M107.79,81.27V77.08h.88v4.19a2,2,0,1,0,3.91,0V77.08h.88v4.19c0,1.79-.94,2.68-2.83,2.68S107.79,83.06,107.79,81.27Z"/><path class="cls-2" d="M115.47,80.5c0-2.31,1.15-3.47,3.43-3.47s3.37,1.16,3.37,3.47S121.15,84,118.9,84,115.47,82.8,115.47,80.5Zm3.43,2.73c1.63,0,2.44-.92,2.44-2.76s-.81-2.72-2.44-2.72-2.5.9-2.5,2.72S117.24,83.23,118.9,83.23Zm-.38-8.06h.71l.84,1.24h-.72l-.47-.77-.48.77h-.72Zm.79,9.3v.89h-.88v-.89Z"/><path class="cls-2" d="M129.48,83.66a6.17,6.17,0,0,1-1.91.29Q124,84,124,80.39,124,77,127.57,77a6.17,6.17,0,0,1,1.91.29v.76a5.13,5.13,0,0,0-1.81-.33q-2.79,0-2.79,2.64c0,1.9.93,2.84,2.79,2.84a5.13,5.13,0,0,0,1.81-.33Z"/><path class="cls-2" d="M134.57,83.66v-.81a6.76,6.76,0,0,0,2.32.38c1.18,0,1.76-.43,1.76-1.29s-.43-1.09-1.29-1.09h-.88c-1.43,0-2.14-.62-2.14-1.86s.91-2,2.74-2a8.33,8.33,0,0,1,2.22.29v.81a6.24,6.24,0,0,0-2.22-.38c-1.24,0-1.86.41-1.86,1.24s.42,1.09,1.26,1.09h.88c1.45,0,2.18.62,2.18,1.86s-.89,2-2.65,2A9,9,0,0,1,134.57,83.66Z"/><path class="cls-2" d="M141.26,80.5q0-3.47,3.42-3.47t3.38,3.47q0,3.45-3.38,3.45T141.26,80.5Zm3.42,2.73c1.63,0,2.45-.92,2.45-2.76s-.82-2.72-2.45-2.72-2.49.9-2.49,2.72S143,83.23,144.68,83.23Zm-.38-8.06H145l.83,1.24h-.71l-.48-.77-.48.77h-.71Zm2.17-.66h1.14l-1.14,1.14h-.78Z"/><path class="cls-2" d="M150.11,83.9V77.08H151l4.17,5.49V77.08H156V83.9h-.89L151,78.36V83.9Z"/><path class="cls-2" d="M163.45,83.63a4.94,4.94,0,0,1-1.78.32Q158,84,158,80.39,158,77,161.55,77a6.1,6.1,0,0,1,1.9.29v.76a5.09,5.09,0,0,0-1.81-.33q-2.79,0-2.79,2.64c0,1.9.92,2.84,2.75,2.84a5.06,5.06,0,0,0,1-.11V80.8h.88Z"/><path class="cls-2" d="M168.55,83.66v-.81a6.72,6.72,0,0,0,2.32.38c1.17,0,1.76-.43,1.76-1.29s-.44-1.09-1.3-1.09h-.88c-1.43,0-2.14-.62-2.14-1.86s.91-2,2.74-2a8.22,8.22,0,0,1,2.22.29v.81a6.16,6.16,0,0,0-2.22-.38c-1.24,0-1.86.41-1.86,1.24s.42,1.09,1.26,1.09h.88c1.45,0,2.18.62,2.18,1.86s-.88,2-2.64,2A9,9,0,0,1,168.55,83.66Z"/><path class="cls-2" d="M175.23,80.5q0-3.47,3.43-3.47T182,80.5q0,3.45-3.37,3.45T175.23,80.5Zm3.43,2.73c1.63,0,2.44-.92,2.44-2.76s-.81-2.72-2.44-2.72-2.5.9-2.5,2.72S177,83.23,178.66,83.23Zm-.38-8.06H179l.84,1.24h-.72l-.48-.77-.47.77h-.72Zm2.17-.66h1.14l-1.14,1.14h-.79Z"/><path class="cls-2" d="M192.3,83.66a6.21,6.21,0,0,1-1.91.29c-2.38,0-3.58-1.19-3.58-3.56S188,77,190.39,77a6.21,6.21,0,0,1,1.91.29v.76a5.13,5.13,0,0,0-1.81-.33q-2.79,0-2.79,2.64c0,1.9.93,2.84,2.79,2.84a5.13,5.13,0,0,0,1.81-.33Z"/><path class="cls-2" d="M194.38,81.27V77.08h.88v4.19a2,2,0,1,0,3.91,0V77.08h.89v4.19c0,1.79-.95,2.68-2.84,2.68S194.38,83.06,194.38,81.27Zm2.36-6.34a3.39,3.39,0,0,1,.39-.08l.3,0c.56,0,.83.23.83.68s-.25.64-.76.66v.24h-.56v-.49a.86.86,0,0,0,0-.16h.5l.1,0a.27.27,0,0,0,.08-.07l.05-.07,0-.07q0-.15-.27-.15a2.79,2.79,0,0,0-.69.11Z"/><path class="cls-2" d="M202.53,83.9h-.92l2.9-6.82h1l2.91,6.82h-1l-.88-2.15h-2.26l.24-.71h1.72L205,78Z"/><path class="cls-2" d="M213.06,83.9V77.08H216q2,0,1.95,1.59a1.73,1.73,0,0,1-1.27,1.66A1.46,1.46,0,0,1,218,81.88c0,1.35-.71,2-2.13,2Zm2.76-.72A1.09,1.09,0,0,0,217,81.94c0-.8-.55-1.2-1.64-1.2H215v-.58c1.31-.17,2-.64,2-1.41s-.37-1-1.09-1h-1.95v5.39Z"/><path class="cls-2" d="M220.3,83.9h-.91l2.89-6.82h1l2.91,6.82h-1l-.88-2.15h-2.26l.25-.71H224L222.74,78Zm2.85.57v.89h-.89v-.89Z"/><path class="cls-2" d="M227.78,83.9V77.08h.88l4.17,5.49V77.08h.84V83.9h-.89l-4.17-5.54V83.9Z"/><line class="cls-3" x1="0.51" y1="80.68" x2="40.53" y2="80.68"/><line class="cls-3" x1="238.46" y1="80.68" x2="278.48" y2="80.68"/><path class="cls-4" d="M104.83,37.73c4.3,0,8.77-1.58,11.42-4.47H87.73v4.59Z"/><path class="cls-2" d="M267.59,21.82H228.26a4.45,4.45,0,0,1-3.82-5.72s.68-2.77,5.48-2.65,38.53,0,38.53,0L278.55,0H226s-11.27,0-15.82,8.56S208.74,31.4,223.7,31.89s37.06,0,37.06,0,3.57-.31,3.57,4.31-5.17,4-5.17,4H213.09c-.09.63-.19,1.27-.33,1.93-1.27,6.07-5.31,9.61-9.36,11.67h60s14.28-1,16.62-12.25S277.26,23.85,267.59,21.82Z"/><path class="cls-4" d="M209,44.38c-.07.17-.16.33-.24.49C208.88,44.71,209,44.55,209,44.38Z"/><path class="cls-4" d="M204.37,49.87c-.42.29-.85.57-1.29.83C203.53,50.43,204,50.15,204.37,49.87Z"/><path class="cls-4" d="M209.62,42.87l-.12.38Z"/><path class="cls-4" d="M204.42,49.83a14.23,14.23,0,0,0,3.16-3A14.54,14.54,0,0,1,204.42,49.83Z"/><path class="cls-4" d="M208.46,45.5a13,13,0,0,1-.86,1.28A13.62,13.62,0,0,0,208.46,45.5Z"/><path class="cls-2" d="M204.37,49.87l0,0a14.54,14.54,0,0,0,3.16-3l0,0a13,13,0,0,0,.86-1.28c.12-.21.23-.42.34-.63s.17-.32.24-.49c.17-.36.32-.74.46-1.13l.12-.38a12.18,12.18,0,0,0,.36-1.35c.13-.6.22-1.18.3-1.76l.07-.46c1.25-9.84-3.8-15.58-12.8-17.48H158.21a4.46,4.46,0,0,1-3.82-5.72s.68-2.77,5.48-2.65c3.83.1,33.77,0,45.75,0a19.23,19.23,0,0,1,2-6.24A17.47,17.47,0,0,1,215,0H155.93s-11.26,0-15.82,8.56S138.7,31.4,153.66,31.89s37.06,0,37.06,0,3.57-.31,3.57,4.31-5.18,4-5.18,4H137.35c-3.48,6.47-9.34,10.94-15.86,13.6h71.87a25.44,25.44,0,0,0,9.38-2.88l.34-.19C203.52,50.44,204,50.16,204.37,49.87Z"/><path class="cls-5" d="M208.8,44.87c-.11.21-.22.42-.34.63C208.58,45.29,208.69,45.08,208.8,44.87Z"/><path class="cls-5" d="M209.5,43.25c-.14.39-.29.77-.46,1.13C209.21,44,209.36,43.64,209.5,43.25Z"/><path class="cls-5" d="M210,41.52a12.18,12.18,0,0,1-.36,1.35,11.11,11.11,0,0,0,.36-1.35c.16-.76.28-1.5.37-2.22l-.07.46C210.2,40.34,210.11,40.92,210,41.52Z"/><path class="cls-5" d="M202.74,50.89l.34-.19Z"/><path class="cls-5" d="M204.42,49.83l0,0Z"/><path class="cls-5" d="M207.6,46.78l0,0Z"/></g></g></g></svg>