<svg xmlns="http://www.w3.org/2000/svg" viewBox="0 0 280.59 54.74"><defs><style>.cls-1,.cls-2{fill:#fff;}.cls-1{fill-rule:evenodd;}</style></defs><g id="Layer_2" data-name="Layer 2"><g id="Layer_1-2" data-name="Layer 1"><path class="cls-1" d="M129.6,8.46l-.77-.67a17.44,17.44,0,0,0-2.2-1.68h0A36,36,0,0,0,106.33.19H70.24l-25.84,36L20.27.61H0L34.55,50c10.28,10.57,19,.14,19,.14l26-36.42h25.35c8.5,0,16.62,4.75,16.62,13.5,0,8.45-8.4,13.28-16.62,13.33L84.9,40.7V20H81.58L68.64,38.61V54.24L106.33,54C119,53.88,132,47.38,136.25,35.73a14.59,14.59,0,0,0,1-3.76c1.43-10.1-2.17-17-5.56-21.18C131.29,10.27,129.89,8.73,129.6,8.46Z"/><path class="cls-2" d="M267.59,21.82H228.26a4.45,4.45,0,0,1-3.82-5.72s.68-2.77,5.48-2.65,38.53,0,38.53,0L278.55,0H226s-11.27,0-15.82,8.56S208.74,31.4,223.7,31.89s37.06,0,37.06,0,3.57-.31,3.57,4.31-5.17,4-5.17,4H213.09c-.09.63-.19,1.27-.33,1.93-1.27,6.07-5.31,9.61-9.36,11.67h60s14.28-1,16.62-12.25S277.26,23.85,267.59,21.82Z"/><path class="cls-2" d="M204.37,49.87l0,0a14.54,14.54,0,0,0,3.16-3l0,0a13,13,0,0,0,.86-1.28c.12-.21.23-.42.34-.63s.17-.32.24-.49c.17-.36.32-.74.46-1.13l.12-.38a12.18,12.18,0,0,0,.36-1.35c.13-.6.22-1.18.3-1.76l.07-.46c1.25-9.84-3.8-15.58-12.8-17.48H158.21a4.46,4.46,0,0,1-3.82-5.72s.68-2.77,5.48-2.65c3.83.1,33.77,0,45.75,0a19.23,19.23,0,0,1,2-6.24A17.47,17.47,0,0,1,215,0H155.93s-11.26,0-15.82,8.56S138.7,31.4,153.66,31.89s37.06,0,37.06,0,3.57-.31,3.57,4.31-5.18,4-5.18,4H137.35c-3.48,6.47-9.34,10.94-15.86,13.6h71.87a25.44,25.44,0,0,0,9.38-2.88l.34-.19C203.52,50.44,204,50.16,204.37,49.87Z"/></g></g></svg>